<svg fill="none" xmlns="http://www.w3.org/2000/svg" viewBox="0 0 53 54"><g clip-path="url(#clip0)"><path fill-rule="evenodd" clip-rule="evenodd" d="M26.413 54C41 54 52.826 41.912 52.826 27S41 0 26.413 0C11.825 0 0 12.088 0 27s11.825 27 26.413 27zm15.606-31.051c.111-.115.302-.267.574-.456.277-.173.396-.319.357-.438l-.358-1.074c-.028-.085-.073-.136-.134-.152-.045-.023-.181-.014-.41.028-.322.036-.561.043-.717.021a1.287 1.287 0 01-.402-.117 3.214 3.214 0 01-.386-.236 4.353 4.353 0 01-.487-.458 5.744 5.744 0 01-.497-.74 8.767 8.767 0 01-.475-1.176l-1.471-4.422a5.889 5.889 0 00-.516-1.132 4.23 4.23 0 00-.775-.986 2.793 2.793 0 00-1.022-.643 2.49 2.49 0 00-1.23-.171c-.222.001-.5.06-.834.176l-1.3.452c-.167.058-.219.18-.156.368l.518 1.56c.069.204.186.277.353.22l1.15-.4c.183-.065.415.073.696.413.291.317.553.825.785 1.524l1.446 4.345c.29.87.675 1.553 1.157 2.05.482.499 1.06.868 1.735 1.109a4.896 4.896 0 00-.706 1.985c-.074.672.033 1.443.322 2.312l1.455 4.37c.232.7.327 1.265.285 1.698-.042.433-.154.681-.338.745l-1.15.4c-.167.058-.216.19-.148.394l.519 1.559c.068.205.185.278.352.22l1.325-.461a2.89 2.89 0 00.766-.38 2.57 2.57 0 00.872-.902c.215-.36.358-.742.428-1.147s.078-.826.026-1.264a5.947 5.947 0 00-.267-1.22l-1.48-4.447a8.275 8.275 0 01-.316-1.202 5.727 5.727 0 01-.055-.922c.01-.25.042-.461.096-.632.055-.171.11-.314.165-.428a1.12 1.12 0 01.248-.343zM27.493 38.152l-1.8.626c-.184.063-.34.07-.469.02-.106-.04-.16-.173-.16-.4l.038-21.603a.42.42 0 01.307-.42l1.975-.687c.384-.133.582-.012.595.364l-.03 21.542c-.016.176-.068.3-.157.368a.66.66 0 01-.3.19zM12.444 20.596c-.183.064-.293.32-.33.77-.041.434.054 1 .287 1.698l1.445 4.346c.29.869.392 1.65.307 2.346a4.279 4.279 0 01-.716 1.96 4.33 4.33 0 011.745 1.133c.476.48.858 1.156 1.148 2.025l1.454 4.371c.232.699.494 1.207.786 1.524.291.316.528.443.712.38l1.15-.4c.167-.059.284.015.352.22l.52 1.559c.067.204.018.335-.149.393l-1.325.461c-.317.11-.595.169-.834.176a2.69 2.69 0 01-1.254-.163 3.413 3.413 0 01-.998-.651 4.233 4.233 0 01-.775-.986 5.9 5.9 0 01-.516-1.132l-1.48-4.448a6.185 6.185 0 00-.49-1.141 4.322 4.322 0 00-.481-.774 2.332 2.332 0 00-.454-.441 3.24 3.24 0 00-.386-.237 1.01 1.01 0 00-.426-.108c-.14-.028-.374-.032-.702-.013-.228.041-.373.053-.434.037-.045-.023-.081-.077-.11-.162l-.357-1.073c-.028-.086-.031-.151-.01-.197.04-.051.161-.132.367-.241a4.34 4.34 0 00.565-.396c.111-.115.2-.24.265-.378.055-.114.11-.257.165-.428a3.1 3.1 0 00.088-.658c.01-.25-.014-.546-.072-.887a6.662 6.662 0 00-.3-1.236L9.73 23.422a5.943 5.943 0 01-.266-1.22 4.339 4.339 0 01.026-1.263c.064-.422.198-.8.402-1.138.215-.36.514-.663.897-.91.194-.144.45-.271.766-.381l1.325-.46c.167-.059.282.006.344.193l.519 1.56c.068.204.018.335-.148.393l-1.15.4z" fill="#31A9F5"/></g><defs><clipPath id="clip0"><path fill="#fff" d="M0 0h52.826v54H0z"/></clipPath></defs></svg>