<svg width="40" height="32" viewBox="0 0 40 32" fill="none" xmlns="http://www.w3.org/2000/svg">
	<path d="M12.5792 32C27.6736 32 35.9296 19.6876 35.9296 9.01028C35.9296 8.66061 35.9296 8.31248 35.9056 7.96589C37.5117 6.82204 38.8982 5.40589 40 3.78353C38.5023 4.43695 36.9133 4.86539 35.2864 5.05476C36.9992 4.04529 38.282 2.45631 38.8944 0.585656C37.2835 1.52675 35.5209 2.19009 33.6832 2.54692C32.1315 0.922327 29.9643 0 27.6994 0C23.193 0 19.4849 3.65085 19.4849 8.08749C19.4849 8.70299 19.5563 9.31657 19.6976 9.91607C13.1024 9.59063 6.94914 6.51928 2.78398 1.47414C0.618047 5.14514 1.73875 9.90254 5.32477 12.2601C4.01891 12.222 2.74109 11.8751 1.6 11.2488V11.3511C1.60109 15.1827 4.3693 18.5131 8.18398 19.2717C6.97586 19.5961 5.70797 19.6435 4.47844 19.4103C5.55086 22.6936 8.64336 24.9567 12.1456 25.0215C9.24016 27.2696 5.64898 28.4908 1.95359 28.4871C1.30063 28.4859 0.648281 28.447 0 28.3705C3.75266 30.7415 8.12031 31.9995 12.5792 31.9937" fill="#e20076"/>
</svg>
