<svg width="27" height="34" viewBox="0 0 27 34" fill="none" xmlns="http://www.w3.org/2000/svg">
	<path d="M19.3474 25.5344C19.339 25.9529 19.3307 26.3714 19.3307 26.7899C19.3307 28.9956 19.3223 31.2014 19.339 33.4071C19.339 33.7472 19.2805 33.8867 18.9128 33.8779C16.3388 33.8605 13.7649 33.8605 11.1909 33.8779C10.865 33.8779 10.7563 33.782 10.7647 33.4333C10.7814 32.2127 10.773 30.9921 10.7647 29.7803C10.7647 29.6669 10.8984 29.449 10.6226 29.4403C10.5641 29.4403 10.514 29.449 10.4555 29.449C10.3468 29.3967 10.2465 29.4054 10.1797 29.5274C9.14342 29.6408 8.09879 29.728 7.07087 29.4577C5.24904 28.9782 3.94534 27.8535 3.14306 26.0662C2.62493 24.898 1.93965 23.8169 1.14573 22.823C0.89502 22.5091 0.493882 22.3871 0.226456 22.0732C0.126172 21.9511 -0.0409688 21.8552 0.00917345 21.6896C0.0593157 21.4891 0.268242 21.4978 0.435382 21.4803C2.10679 21.3321 3.29349 22.1604 4.12084 23.5902C4.88133 24.898 5.87582 25.8657 7.31323 26.258C8.33279 26.537 9.35235 26.476 10.3552 26.1534C10.5892 26.0749 10.7145 25.9703 10.7396 25.6739C10.8148 24.5928 11.0321 23.5466 11.7508 22.6312C11.475 22.5789 11.2577 22.5265 11.0321 22.4917C9.26042 22.2127 7.61408 21.5762 6.18503 20.4341C4.58883 19.1612 3.59434 17.4611 3.28513 15.3774C3.01771 13.5553 3.11799 11.7244 3.34363 9.90227C3.51913 8.4986 3.8952 7.16468 4.86461 6.11847C5.20725 5.75229 5.23232 5.45587 5.0819 4.99379C4.57212 3.44191 4.71419 1.88131 5.17382 0.329431C5.2574 0.0417231 5.38275 -0.0454613 5.6836 0.0330045C6.8118 0.320713 7.68094 1.00947 8.4665 1.84644C8.85092 2.24749 9.17685 2.70084 9.49441 3.1542C9.58634 3.28498 9.6532 3.35473 9.81198 3.22395C10.4137 2.727 11.1408 2.57007 11.8678 2.45673C13.9738 2.14286 16.0881 2.13415 18.1941 2.44801C18.8961 2.55263 19.6064 2.68341 20.1914 3.14548C20.4672 3.36344 20.5759 3.24139 20.7263 3.01471C21.2862 2.1603 21.9715 1.42795 22.7738 0.826381C23.2835 0.44277 23.8518 0.181218 24.4702 0.0242862C24.7377 -0.0454612 24.8463 0.0330046 24.9299 0.285839C25.4981 1.95978 25.5817 3.63371 24.9466 5.30765C24.8714 5.5169 24.8212 5.66511 25.0051 5.8482C26.033 6.85953 26.5177 8.14986 26.7183 9.57097C26.9606 11.2972 27.1027 13.0322 26.9105 14.7846C26.5929 17.7314 25.1555 19.8761 22.6651 21.2798C22.5732 21.2711 22.498 21.2973 22.4645 21.3932C22.3977 21.428 22.3308 21.4629 22.2723 21.4891C22.055 21.4978 21.8712 21.5937 21.7208 21.7419C21.6539 21.768 21.5787 21.7855 21.5118 21.8116C21.4116 21.7855 21.3447 21.8291 21.3029 21.9163C21.2611 21.925 21.211 21.9424 21.1692 21.9511C20.8349 22.0034 20.5006 22.047 20.2165 22.2563C20.1747 22.265 20.1246 22.2737 20.0828 22.2824C19.8404 22.2737 19.5981 22.2912 19.3892 22.4481C19.2053 22.4742 19.0298 22.5004 18.8459 22.5265C18.7039 22.5353 18.5451 22.5178 18.4197 22.5701C18.286 22.6312 18.3445 22.7184 18.4615 22.7532L18.4699 22.7619C18.4782 22.884 18.5367 22.9712 18.6454 23.0061C18.7122 23.1456 18.7791 23.2851 18.8459 23.4158C18.8627 23.5989 18.8961 23.7733 19.0465 23.8953C19.0632 23.9738 19.0799 24.0436 19.0967 24.122C19.1384 24.3661 19.1384 24.6103 19.2722 24.8282C19.2805 24.8805 19.2889 24.9328 19.2972 24.9764C19.2471 25.081 19.2722 25.1769 19.3474 25.2641C19.339 25.36 19.339 25.4472 19.3474 25.5344Z" fill="#e20076"/>
</svg>
