<svg width="212" height="54" viewBox="0 0 212 54" fill="none" xmlns="http://www.w3.org/2000/svg">
	<path fill-rule="evenodd" clip-rule="evenodd" d="M26.4129 54C41.0003 54 52.8258 41.9116 52.8258 27C52.8258 12.0884 41.0003 0 26.4129 0C11.8255 0 0 12.0884 0 27C0 41.9116 11.8255 54 26.4129 54ZM42.0194 22.9488C42.1301 22.8343 42.3213 22.6822 42.593 22.4926C42.8704 22.3202 42.9893 22.1743 42.9496 22.055L42.5924 20.9813C42.5641 20.8962 42.5193 20.8453 42.4578 20.8286C42.4132 20.8061 42.2768 20.8155 42.0488 20.8567C41.726 20.8928 41.4866 20.9 41.3306 20.8783C41.1745 20.8564 41.0406 20.8175 40.929 20.7612C40.8172 20.705 40.6887 20.6261 40.5434 20.5246C40.3922 20.4059 40.2298 20.2532 40.0561 20.0665C39.8991 19.8739 39.7334 19.6274 39.559 19.3267C39.3955 19.0033 39.2373 18.6115 39.0842 18.1514L37.613 13.7291C37.4826 13.3372 37.3105 12.9596 37.0967 12.5967C36.8774 12.2167 36.6192 11.8882 36.3225 11.6111C36.02 11.317 35.679 11.1028 35.2996 10.9685C34.9312 10.8114 34.5216 10.7542 34.0707 10.7968C33.848 10.7982 33.5699 10.8569 33.2365 10.9728L31.9362 11.4248C31.7694 11.4828 31.7173 11.6055 31.7797 11.7929L32.2984 13.3522C32.3665 13.5567 32.4839 13.63 32.6506 13.5721L33.8008 13.1721C33.9842 13.1084 34.2161 13.2464 34.4966 13.5863C34.788 13.9031 35.0499 14.411 35.2824 15.1097L36.7282 19.4553C37.0173 20.3244 37.4027 21.0079 37.8846 21.5059C38.3665 22.0037 38.945 22.373 39.6202 22.6136C39.2342 23.2422 38.9987 23.9038 38.9137 24.5989C38.8397 25.2709 38.9473 26.0416 39.2364 26.9108L40.6907 31.2818C40.9231 31.9806 41.0183 32.5464 40.9764 32.9792C40.9344 33.4121 40.8217 33.6604 40.6383 33.7242L39.4881 34.124C39.3214 34.182 39.272 34.3132 39.3401 34.5177L39.8588 36.077C39.9268 36.2815 40.0443 36.3548 40.2109 36.2968L41.5362 35.836C41.853 35.7259 42.1084 35.5991 42.3024 35.4556C42.6852 35.2085 42.9758 34.9078 43.1741 34.5537C43.3892 34.1937 43.5317 33.8115 43.6016 33.407C43.6717 33.0023 43.6803 32.581 43.6276 32.1431C43.5805 31.7222 43.4918 31.3158 43.3614 30.9238L41.8817 26.476C41.7286 26.0159 41.6232 25.6151 41.5654 25.274C41.5188 24.91 41.5002 24.6028 41.5098 24.3522C41.5195 24.1017 41.5516 23.8909 41.6063 23.7197C41.661 23.5487 41.7159 23.4061 41.7709 23.2918C41.8369 23.1548 41.9197 23.0405 42.0194 22.9488ZM27.4925 38.1517L25.6921 38.7776C25.5087 38.8414 25.3528 38.848 25.2244 38.7976C25.1183 38.7584 25.0647 38.6249 25.0633 38.3973L25.1021 16.7951C25.1065 16.5845 25.2087 16.4444 25.4088 16.3748L27.3842 15.6881C27.7677 15.5547 27.9661 15.6758 27.9794 16.0515L27.9485 37.5939C27.9329 37.7704 27.8808 37.8931 27.7921 37.962C27.7257 38.0421 27.6258 38.1053 27.4925 38.1517ZM12.4454 20.5963C12.262 20.66 12.1522 20.9169 12.1159 21.3669C12.0739 21.7997 12.1691 22.3654 12.4015 23.0641L13.8474 27.4097C14.1365 28.2789 14.2386 29.0609 14.1536 29.7559C14.0853 30.4451 13.8469 31.0982 13.4385 31.7156C14.1361 31.9674 14.7175 32.3452 15.1826 32.8489C15.6588 33.3297 16.0415 34.0047 16.3306 34.8739L17.7848 39.245C18.0173 39.9437 18.2792 40.4515 18.5707 40.7685C18.8621 41.0854 19.0995 41.2121 19.2829 41.1482L20.4333 40.7484C20.5999 40.6904 20.7172 40.7637 20.7853 40.9682L21.3041 42.5275C21.3722 42.732 21.3228 42.8632 21.156 42.9212L19.8307 43.382C19.514 43.4921 19.2359 43.5506 18.9965 43.5579C18.5458 43.6005 18.1278 43.5462 17.7427 43.3949C17.3742 43.2378 17.0416 43.0207 16.7449 42.7436C16.4481 42.4665 16.19 42.138 15.9705 41.758C15.7568 41.395 15.5848 41.0176 15.4543 40.6256L13.9746 36.1778C13.8215 35.7176 13.6578 35.3372 13.4833 35.0367C13.3199 34.7132 13.1597 34.4553 13.0026 34.2626C12.8455 34.0701 12.6944 33.923 12.549 33.8215C12.4036 33.7199 12.275 33.6411 12.1634 33.5848C12.0292 33.5173 11.8871 33.4813 11.7367 33.4765C11.5973 33.4489 11.3634 33.4447 11.035 33.4638C10.807 33.505 10.6623 33.5173 10.6009 33.5005C10.5562 33.4781 10.5197 33.4242 10.4914 33.339L10.1342 32.2655C10.1058 32.1802 10.1027 32.1147 10.1247 32.0691C10.1633 32.0177 10.2853 31.9371 10.4907 31.8277C10.7681 31.6553 10.9567 31.5232 11.0564 31.4315C11.1671 31.3169 11.2554 31.1912 11.3214 31.0542C11.3764 30.94 11.4313 30.7974 11.4859 30.6262C11.5349 30.438 11.5643 30.2188 11.5739 29.9682C11.5836 29.7177 11.5596 29.4219 11.5018 29.0806C11.4551 28.7167 11.3552 28.3046 11.2021 27.8445L9.73087 23.4223C9.60048 23.0303 9.51175 22.6239 9.46471 22.2029C9.41199 21.7649 9.42062 21.3436 9.49062 20.9391C9.55494 20.5174 9.68911 20.1381 9.89315 19.801C10.1082 19.4411 10.4071 19.1375 10.7898 18.8904C10.9839 18.7468 11.2393 18.62 11.556 18.5099L12.8813 18.0491C13.0481 17.9913 13.1626 18.056 13.2249 18.2434L13.7437 19.8027C13.8118 20.0072 13.7624 20.1385 13.5958 20.1964L12.4454 20.5963Z" fill="#616161"/>
	<path d="M78.0602 12.6797V11.125H69.2008V12.6797H72.6852V22.5H74.5524V12.6797H78.0602ZM85.0446 22.5H86.9508V22.3672C86.8466 22.1484 86.7659 21.888 86.7086 21.5859C86.6565 21.2786 86.6305 20.9349 86.6305 20.5547V16.7969C86.6305 16.3177 86.542 15.8958 86.3649 15.5312C86.1878 15.1615 85.943 14.8568 85.6305 14.6172C85.318 14.3776 84.9456 14.1979 84.5133 14.0781C84.0862 13.9531 83.6253 13.8906 83.1305 13.8906C82.5784 13.8906 82.0862 13.9635 81.6539 14.1094C81.2268 14.25 80.8649 14.4427 80.568 14.6875C80.2711 14.9271 80.0446 15.2031 79.8883 15.5156C79.7321 15.8281 79.6513 16.1536 79.6461 16.4922H81.5211C81.5211 16.3307 81.5498 16.1797 81.6071 16.0391C81.6696 15.8932 81.7633 15.7708 81.8883 15.6719C82.0133 15.5625 82.1696 15.4766 82.3571 15.4141C82.5498 15.3516 82.7737 15.3203 83.0289 15.3203C83.3102 15.3203 83.5576 15.3568 83.7711 15.4297C83.9899 15.4974 84.1748 15.5964 84.3258 15.7266C84.4664 15.8568 84.5732 16.0104 84.6461 16.1875C84.7242 16.3646 84.7633 16.5625 84.7633 16.7812V17.3516H83.4039C82.7946 17.3516 82.2477 17.4089 81.7633 17.5234C81.2841 17.638 80.8805 17.8047 80.5524 18.0234C80.1982 18.2578 79.9274 18.5547 79.7399 18.9141C79.5576 19.2682 79.4664 19.6771 79.4664 20.1406C79.4664 20.5 79.5367 20.8359 79.6774 21.1484C79.8232 21.4557 80.0237 21.7188 80.2789 21.9375C80.5393 22.1615 80.8492 22.3385 81.2086 22.4688C81.5732 22.5938 81.9742 22.6562 82.4117 22.6562C82.6826 22.6562 82.9352 22.6302 83.1696 22.5781C83.4039 22.526 83.6227 22.4531 83.8258 22.3594C84.0289 22.2708 84.2112 22.1667 84.3727 22.0469C84.5393 21.9219 84.6878 21.7917 84.818 21.6562C84.844 21.8177 84.8727 21.974 84.9039 22.125C84.9404 22.2708 84.9873 22.3958 85.0446 22.5ZM82.7711 21.1562C82.5315 21.1562 82.3232 21.1276 82.1461 21.0703C81.969 21.0078 81.8206 20.9245 81.7008 20.8203C81.581 20.7161 81.4899 20.5911 81.4274 20.4453C81.3649 20.2943 81.3336 20.1328 81.3336 19.9609C81.3336 19.7526 81.3701 19.5651 81.443 19.3984C81.5211 19.2318 81.6383 19.0885 81.7946 18.9688C81.9716 18.8281 82.2086 18.7214 82.5055 18.6484C82.8024 18.5703 83.1539 18.5312 83.5602 18.5312H84.7633V20.0938C84.6956 20.2292 84.5992 20.3594 84.4742 20.4844C84.3492 20.6094 84.2008 20.7214 84.0289 20.8203C83.8571 20.9193 83.6643 21 83.4508 21.0625C83.2425 21.125 83.0159 21.1562 82.7711 21.1562ZM97.2555 15.5469V14.0469H88.8102V15.5469H92.0758V22.5H93.9508V15.5469H97.2555ZM100.685 17.0391V14.0469H98.818V22.5H103.013C103.555 22.5 104.037 22.4323 104.459 22.2969C104.886 22.1562 105.245 21.9635 105.537 21.7188C105.828 21.4792 106.05 21.1927 106.201 20.8594C106.352 20.5208 106.427 20.1562 106.427 19.7656C106.427 19.3646 106.349 18.9974 106.193 18.6641C106.042 18.3307 105.823 18.0443 105.537 17.8047C105.245 17.5651 104.886 17.3776 104.459 17.2422C104.037 17.1068 103.555 17.0391 103.013 17.0391H100.685ZM100.685 18.5469H103.013C103.284 18.5469 103.516 18.5833 103.709 18.6562C103.907 18.724 104.068 18.8151 104.193 18.9297C104.323 19.0443 104.417 19.1771 104.474 19.3281C104.532 19.4792 104.56 19.6354 104.56 19.7969C104.56 19.9531 104.532 20.1042 104.474 20.25C104.417 20.3958 104.326 20.5234 104.201 20.6328C104.076 20.7422 103.914 20.8307 103.716 20.8984C103.519 20.9661 103.284 21 103.013 21H100.685V18.5469ZM115.74 14.0469H111.654C111.117 14.0469 110.638 14.1146 110.216 14.25C109.795 14.3854 109.435 14.5729 109.138 14.8125C108.847 15.0573 108.62 15.3438 108.459 15.6719C108.302 16 108.224 16.362 108.224 16.7578C108.224 17.2891 108.367 17.7604 108.654 18.1719C108.94 18.5781 109.341 18.8854 109.857 19.0938L107.873 22.5H109.818L111.63 19.3984H113.873V22.5H115.74V14.0469ZM110.099 16.7969C110.099 16.6458 110.13 16.4974 110.193 16.3516C110.255 16.2005 110.352 16.0651 110.482 15.9453C110.607 15.8255 110.766 15.7292 110.959 15.6562C111.157 15.5833 111.388 15.5469 111.654 15.5469H113.873V18.0156H111.537C111.292 18.0156 111.078 17.9818 110.896 17.9141C110.719 17.8411 110.571 17.7474 110.451 17.6328C110.331 17.5182 110.242 17.388 110.185 17.2422C110.128 17.0964 110.099 16.9479 110.099 16.7969ZM125.271 22.5V14.0469H123.396V17.5703H119.834V14.0469H117.959V22.5H119.834V19.0781H123.396V22.5H125.271ZM133.091 22.5H134.998V22.3672C134.894 22.1484 134.813 21.888 134.755 21.5859C134.703 21.2786 134.677 20.9349 134.677 20.5547V16.7969C134.677 16.3177 134.589 15.8958 134.412 15.5312C134.235 15.1615 133.99 14.8568 133.677 14.6172C133.365 14.3776 132.992 14.1979 132.56 14.0781C132.133 13.9531 131.672 13.8906 131.177 13.8906C130.625 13.8906 130.133 13.9635 129.701 14.1094C129.274 14.25 128.912 14.4427 128.615 14.6875C128.318 14.9271 128.091 15.2031 127.935 15.5156C127.779 15.8281 127.698 16.1536 127.693 16.4922H129.568C129.568 16.3307 129.597 16.1797 129.654 16.0391C129.716 15.8932 129.81 15.7708 129.935 15.6719C130.06 15.5625 130.216 15.4766 130.404 15.4141C130.597 15.3516 130.821 15.3203 131.076 15.3203C131.357 15.3203 131.604 15.3568 131.818 15.4297C132.037 15.4974 132.222 15.5964 132.373 15.7266C132.513 15.8568 132.62 16.0104 132.693 16.1875C132.771 16.3646 132.81 16.5625 132.81 16.7812V17.3516H131.451C130.841 17.3516 130.295 17.4089 129.81 17.5234C129.331 17.638 128.927 17.8047 128.599 18.0234C128.245 18.2578 127.974 18.5547 127.787 18.9141C127.604 19.2682 127.513 19.6771 127.513 20.1406C127.513 20.5 127.584 20.8359 127.724 21.1484C127.87 21.4557 128.071 21.7188 128.326 21.9375C128.586 22.1615 128.896 22.3385 129.255 22.4688C129.62 22.5938 130.021 22.6562 130.459 22.6562C130.729 22.6562 130.982 22.6302 131.216 22.5781C131.451 22.526 131.67 22.4531 131.873 22.3594C132.076 22.2708 132.258 22.1667 132.42 22.0469C132.586 21.9219 132.735 21.7917 132.865 21.6562C132.891 21.8177 132.92 21.974 132.951 22.125C132.987 22.2708 133.034 22.3958 133.091 22.5ZM130.818 21.1562C130.578 21.1562 130.37 21.1276 130.193 21.0703C130.016 21.0078 129.867 20.9245 129.748 20.8203C129.628 20.7161 129.537 20.5911 129.474 20.4453C129.412 20.2943 129.38 20.1328 129.38 19.9609C129.38 19.7526 129.417 19.5651 129.49 19.3984C129.568 19.2318 129.685 19.0885 129.841 18.9688C130.019 18.8281 130.255 18.7214 130.552 18.6484C130.849 18.5703 131.201 18.5312 131.607 18.5312H132.81V20.0938C132.742 20.2292 132.646 20.3594 132.521 20.4844C132.396 20.6094 132.248 20.7214 132.076 20.8203C131.904 20.9193 131.711 21 131.498 21.0625C131.289 21.125 131.063 21.1562 130.818 21.1562ZM151.662 12.6875V11.125H149.787V12.6875C149.266 12.7396 148.787 12.875 148.349 13.0938C147.917 13.3125 147.542 13.6042 147.224 13.9688C146.907 14.3333 146.659 14.763 146.482 15.2578C146.31 15.7474 146.224 16.2865 146.224 16.875C146.224 17.4583 146.31 17.9922 146.482 18.4766C146.659 18.9609 146.907 19.3828 147.224 19.7422C147.542 20.1016 147.917 20.3906 148.349 20.6094C148.787 20.8229 149.266 20.9531 149.787 21V22.5H151.662V21C152.183 20.9531 152.659 20.8203 153.091 20.6016C153.529 20.3776 153.904 20.0859 154.216 19.7266C154.534 19.3672 154.782 18.9453 154.959 18.4609C155.136 17.9766 155.224 17.4427 155.224 16.8594C155.224 16.2708 155.136 15.7318 154.959 15.2422C154.782 14.7526 154.534 14.3281 154.216 13.9688C153.904 13.6042 153.529 13.3125 153.091 13.0938C152.659 12.875 152.183 12.7396 151.662 12.6875ZM148.076 16.875C148.076 16.4948 148.117 16.1536 148.201 15.8516C148.284 15.5443 148.404 15.2812 148.56 15.0625C148.706 14.8542 148.88 14.6875 149.084 14.5625C149.292 14.4323 149.526 14.3438 149.787 14.2969V19.3906C149.526 19.349 149.289 19.2656 149.076 19.1406C148.867 19.0104 148.69 18.8411 148.545 18.6328C148.394 18.4193 148.276 18.1641 148.193 17.8672C148.115 17.5703 148.076 17.2396 148.076 16.875ZM153.357 16.8594C153.357 17.2344 153.315 17.5755 153.232 17.8828C153.149 18.1849 153.026 18.4453 152.865 18.6641C152.719 18.8568 152.545 19.0156 152.341 19.1406C152.144 19.2604 151.917 19.3438 151.662 19.3906V14.2969C151.901 14.3385 152.115 14.4167 152.302 14.5312C152.495 14.6406 152.662 14.7839 152.802 14.9609C152.979 15.1797 153.115 15.4505 153.209 15.7734C153.308 16.0911 153.357 16.4531 153.357 16.8594ZM156.177 18.1953V18.3594C156.177 18.9792 156.266 19.5495 156.443 20.0703C156.62 20.5911 156.878 21.0443 157.216 21.4297C157.55 21.8151 157.961 22.1172 158.451 22.3359C158.94 22.5547 159.495 22.6641 160.115 22.6641C160.729 22.6641 161.279 22.5547 161.763 22.3359C162.253 22.1172 162.664 21.8151 162.998 21.4297C163.331 21.0443 163.586 20.5911 163.763 20.0703C163.94 19.5495 164.029 18.9792 164.029 18.3594V18.1953C164.029 17.5807 163.94 17.013 163.763 16.4922C163.586 15.9661 163.331 15.5104 162.998 15.125C162.659 14.7396 162.245 14.4375 161.755 14.2188C161.271 14 160.719 13.8906 160.099 13.8906C159.479 13.8906 158.927 14 158.443 14.2188C157.959 14.4375 157.55 14.7396 157.216 15.125C156.878 15.5104 156.62 15.9661 156.443 16.4922C156.266 17.013 156.177 17.5807 156.177 18.1953ZM158.045 18.3594V18.1953C158.045 17.8255 158.084 17.4714 158.162 17.1328C158.245 16.7943 158.37 16.4974 158.537 16.2422C158.709 15.987 158.922 15.7839 159.177 15.6328C159.438 15.4818 159.745 15.4062 160.099 15.4062C160.459 15.4062 160.766 15.4818 161.021 15.6328C161.282 15.7839 161.495 15.987 161.662 16.2422C161.828 16.4974 161.953 16.7943 162.037 17.1328C162.12 17.4714 162.162 17.8255 162.162 18.1953V18.3594C162.162 18.7396 162.12 19.099 162.037 19.4375C161.959 19.776 161.836 20.0729 161.67 20.3281C161.503 20.5833 161.289 20.7865 161.029 20.9375C160.769 21.0833 160.464 21.1562 160.115 21.1562C159.755 21.1562 159.446 21.0833 159.185 20.9375C158.925 20.7865 158.709 20.5833 158.537 20.3281C158.37 20.0729 158.245 19.776 158.162 19.4375C158.084 19.099 158.045 18.7396 158.045 18.3594ZM169.24 19.1484L171.896 22.5H174.334L170.748 18.1172L174.068 14.0469H171.748L169.107 17.4219H167.927V14.0469H166.06V22.5H167.927V19.1484H169.24ZM181.06 14.0469L177.482 19.7969V14.0469H175.615V22.5H177.482L181.06 16.7578V22.5H182.927V14.0469H181.06ZM192.537 22.5V14.0469H190.662V17.5703H187.099V14.0469H185.224V22.5H187.099V19.0781H190.662V22.5H192.537ZM200.357 22.5H202.263V22.3672C202.159 22.1484 202.078 21.888 202.021 21.5859C201.969 21.2786 201.943 20.9349 201.943 20.5547V16.7969C201.943 16.3177 201.854 15.8958 201.677 15.5312C201.5 15.1615 201.255 14.8568 200.943 14.6172C200.63 14.3776 200.258 14.1979 199.826 14.0781C199.399 13.9531 198.938 13.8906 198.443 13.8906C197.891 13.8906 197.399 13.9635 196.966 14.1094C196.539 14.25 196.177 14.4427 195.88 14.6875C195.584 14.9271 195.357 15.2031 195.201 15.5156C195.045 15.8281 194.964 16.1536 194.959 16.4922H196.834C196.834 16.3307 196.862 16.1797 196.92 16.0391C196.982 15.8932 197.076 15.7708 197.201 15.6719C197.326 15.5625 197.482 15.4766 197.67 15.4141C197.862 15.3516 198.086 15.3203 198.341 15.3203C198.623 15.3203 198.87 15.3568 199.084 15.4297C199.302 15.4974 199.487 15.5964 199.638 15.7266C199.779 15.8568 199.886 16.0104 199.959 16.1875C200.037 16.3646 200.076 16.5625 200.076 16.7812V17.3516H198.716C198.107 17.3516 197.56 17.4089 197.076 17.5234C196.597 17.638 196.193 17.8047 195.865 18.0234C195.511 18.2578 195.24 18.5547 195.052 18.9141C194.87 19.2682 194.779 19.6771 194.779 20.1406C194.779 20.5 194.849 20.8359 194.99 21.1484C195.136 21.4557 195.336 21.7188 195.591 21.9375C195.852 22.1615 196.162 22.3385 196.521 22.4688C196.886 22.5938 197.287 22.6562 197.724 22.6562C197.995 22.6562 198.248 22.6302 198.482 22.5781C198.716 22.526 198.935 22.4531 199.138 22.3594C199.341 22.2708 199.524 22.1667 199.685 22.0469C199.852 21.9219 200 21.7917 200.13 21.6562C200.157 21.8177 200.185 21.974 200.216 22.125C200.253 22.2708 200.3 22.3958 200.357 22.5ZM198.084 21.1562C197.844 21.1562 197.636 21.1276 197.459 21.0703C197.282 21.0078 197.133 20.9245 197.013 20.8203C196.894 20.7161 196.802 20.5911 196.74 20.4453C196.677 20.2943 196.646 20.1328 196.646 19.9609C196.646 19.7526 196.683 19.5651 196.755 19.3984C196.834 19.2318 196.951 19.0885 197.107 18.9688C197.284 18.8281 197.521 18.7214 197.818 18.6484C198.115 18.5703 198.466 18.5312 198.873 18.5312H200.076V20.0938C200.008 20.2292 199.912 20.3594 199.787 20.4844C199.662 20.6094 199.513 20.7214 199.341 20.8203C199.17 20.9193 198.977 21 198.763 21.0625C198.555 21.125 198.328 21.1562 198.084 21.1562Z" fill="#616161"/>
	<path d="M76.2565 44.5V34.5469H75.0602V38.8262H70.9791V34.5469H69.7897V44.5H70.9791V39.8994H75.0602V44.5H76.2565ZM85.1364 35.627V34.5469H77.7535V35.627H80.8297V44.5H82.0602V35.627H85.1364ZM88.2194 34.5469H86.6539V44.5H87.8844V40.5283L87.7819 36.5156L89.4703 41.7314H90.1949L92.0338 36.3721L91.9313 40.5283V44.5H93.1617V34.5469H91.5895L89.8395 39.5234L88.2194 34.5469ZM96.6686 43.4268V34.5469H95.4039V44.5H101.536V43.4268H96.6686ZM109.178 40.665V39.626H103.949V40.665H109.178ZM111.988 44.5H115.365C115.798 44.5 116.187 44.4567 116.534 44.3701C116.885 44.2835 117.183 44.1514 117.429 43.9736C117.675 43.8005 117.865 43.584 117.997 43.3242C118.129 43.0599 118.195 42.7523 118.195 42.4014C118.195 42.2008 118.163 42.0094 118.099 41.8271C118.035 41.6449 117.942 41.4785 117.819 41.3281C117.696 41.1823 117.548 41.057 117.375 40.9521C117.206 40.8428 117.008 40.7585 116.78 40.6992L116.725 40.6855C116.866 40.6309 116.996 40.5693 117.115 40.501C117.233 40.4326 117.338 40.3551 117.429 40.2686C117.593 40.1227 117.716 39.9541 117.798 39.7627C117.885 39.5667 117.928 39.3571 117.928 39.1338C117.928 38.7829 117.855 38.4798 117.71 38.2246C117.568 37.9694 117.366 37.7598 117.101 37.5957C116.832 37.4316 116.511 37.3086 116.137 37.2266C115.764 37.1445 115.349 37.1035 114.893 37.1035H111.988V44.5ZM113.259 41.2529H115.365C115.62 41.2529 115.846 41.278 116.042 41.3281C116.238 41.3783 116.402 41.4512 116.534 41.5469C116.661 41.638 116.757 41.752 116.821 41.8887C116.889 42.0254 116.923 42.1826 116.923 42.3604C116.923 42.5335 116.894 42.6885 116.835 42.8252C116.775 42.9574 116.689 43.069 116.575 43.1602C116.443 43.265 116.274 43.3447 116.069 43.3994C115.868 43.4541 115.634 43.4814 115.365 43.4814H113.259V41.2529ZM113.259 40.2412V38.1289H114.893C115.171 38.1289 115.42 38.1494 115.638 38.1904C115.862 38.2314 116.046 38.2952 116.192 38.3818C116.347 38.4684 116.463 38.5801 116.541 38.7168C116.623 38.8535 116.664 39.0153 116.664 39.2021C116.664 39.3434 116.639 39.471 116.589 39.585C116.538 39.6943 116.468 39.79 116.377 39.8721C116.231 39.9997 116.035 40.0931 115.789 40.1523C115.543 40.2116 115.249 40.2412 114.907 40.2412H113.259ZM123.732 44.6367C124.452 44.6367 125.056 44.4932 125.544 44.2061C126.036 43.9144 126.405 43.5817 126.651 43.208L125.879 42.6064C125.646 42.9072 125.354 43.1488 125.004 43.3311C124.653 43.5133 124.252 43.6045 123.8 43.6045C123.459 43.6045 123.146 43.5407 122.864 43.4131C122.581 43.2855 122.34 43.11 122.139 42.8867C121.943 42.6771 121.788 42.4355 121.674 42.1621C121.565 41.8887 121.494 41.5719 121.463 41.2119V41.1641H126.747V40.5967C126.747 40.0817 126.681 39.6032 126.548 39.1611C126.421 38.7191 126.225 38.334 125.961 38.0059C125.696 37.6823 125.364 37.4294 124.963 37.2471C124.566 37.0602 124.101 36.9668 123.568 36.9668C123.144 36.9668 122.729 37.0534 122.324 37.2266C121.923 37.3997 121.565 37.6481 121.251 37.9717C120.932 38.2998 120.676 38.7008 120.485 39.1748C120.294 39.6442 120.198 40.1774 120.198 40.7744V41.0615C120.198 41.5765 120.284 42.0527 120.458 42.4902C120.631 42.9277 120.872 43.306 121.182 43.625C121.492 43.944 121.864 44.1924 122.297 44.3701C122.734 44.5479 123.213 44.6367 123.732 44.6367ZM123.568 38.0059C123.892 38.0059 124.17 38.0651 124.402 38.1836C124.639 38.3021 124.835 38.457 124.99 38.6484C125.145 38.8398 125.266 39.0677 125.352 39.332C125.439 39.5918 125.482 39.8356 125.482 40.0635V40.125H121.504C121.554 39.7832 121.64 39.4824 121.763 39.2227C121.891 38.9583 122.046 38.735 122.228 38.5527C122.41 38.375 122.616 38.2406 122.843 38.1494C123.071 38.0537 123.313 38.0059 123.568 38.0059ZM128.866 47.3438H130.13V43.7891C130.222 43.8893 130.32 43.9827 130.424 44.0693C130.529 44.1514 130.641 44.2266 130.759 44.2949C130.955 44.4043 131.174 44.4886 131.416 44.5479C131.662 44.6071 131.926 44.6367 132.209 44.6367C132.673 44.6367 133.086 44.541 133.446 44.3496C133.811 44.1582 134.116 43.8939 134.362 43.5566C134.608 43.2194 134.795 42.8229 134.922 42.3672C135.05 41.9069 135.114 41.4124 135.114 40.8838V40.7402C135.114 40.1888 135.05 39.6829 134.922 39.2227C134.795 38.7578 134.608 38.359 134.362 38.0264C134.116 37.6937 133.811 37.4339 133.446 37.2471C133.081 37.0602 132.662 36.9668 132.188 36.9668C131.919 36.9668 131.666 36.9964 131.429 37.0557C131.197 37.1104 130.985 37.1924 130.794 37.3018C130.657 37.3747 130.529 37.4635 130.411 37.5684C130.292 37.6686 130.183 37.7826 130.083 37.9102L130.021 37.1035H128.866V47.3438ZM133.849 40.7402V40.8838C133.849 41.2438 133.808 41.5879 133.726 41.916C133.649 42.2441 133.528 42.5335 133.364 42.7842C133.2 43.0348 132.99 43.2354 132.735 43.3857C132.48 43.5316 132.177 43.6045 131.826 43.6045C131.607 43.6045 131.407 43.5771 131.224 43.5225C131.047 43.4678 130.885 43.3926 130.739 43.2969C130.611 43.2148 130.497 43.1146 130.397 42.9961C130.297 42.8776 130.208 42.75 130.13 42.6133V39.0518C130.217 38.8968 130.317 38.7555 130.431 38.6279C130.545 38.5003 130.675 38.3932 130.821 38.3066C130.953 38.2201 131.101 38.154 131.265 38.1084C131.434 38.0628 131.616 38.04 131.812 38.04C132.168 38.04 132.473 38.113 132.728 38.2588C132.983 38.4046 133.195 38.6006 133.364 38.8467C133.528 39.0973 133.649 39.3867 133.726 39.7148C133.808 40.0384 133.849 40.3802 133.849 40.7402ZM140.432 43.6113C140.036 43.6113 139.703 43.5339 139.434 43.3789C139.17 43.2194 138.958 43.012 138.798 42.7568C138.634 42.5062 138.516 42.2236 138.443 41.9092C138.375 41.5902 138.34 41.2689 138.34 40.9453V40.6582C138.34 40.3392 138.375 40.0225 138.443 39.708C138.516 39.3936 138.634 39.1087 138.798 38.8535C138.963 38.6029 139.177 38.4001 139.441 38.2451C139.71 38.0856 140.04 38.0059 140.432 38.0059C140.687 38.0059 140.924 38.0492 141.143 38.1357C141.366 38.2223 141.558 38.3408 141.717 38.4912C141.877 38.6416 142.002 38.8171 142.093 39.0176C142.189 39.2135 142.239 39.4232 142.244 39.6465H143.44C143.44 39.2728 143.365 38.9219 143.214 38.5938C143.064 38.2656 142.857 37.9808 142.592 37.7393C142.324 37.5023 142.005 37.3154 141.635 37.1787C141.271 37.0374 140.87 36.9668 140.432 36.9668C139.872 36.9668 139.382 37.0671 138.963 37.2676C138.543 37.4681 138.195 37.737 137.917 38.0742C137.634 38.416 137.422 38.8102 137.281 39.2568C137.14 39.7035 137.069 40.1706 137.069 40.6582V40.9453C137.069 41.4375 137.14 41.9069 137.281 42.3535C137.422 42.7956 137.634 43.1852 137.917 43.5225C138.195 43.8643 138.543 44.1354 138.963 44.3359C139.382 44.5365 139.872 44.6367 140.432 44.6367C140.824 44.6367 141.2 44.5706 141.56 44.4385C141.92 44.3018 142.239 44.1195 142.517 43.8916C142.795 43.6683 143.016 43.4085 143.18 43.1123C143.349 42.8115 143.436 42.4971 143.44 42.1689H142.244C142.239 42.374 142.185 42.5654 142.08 42.7432C141.979 42.9163 141.845 43.0667 141.676 43.1943C141.508 43.3265 141.314 43.429 141.095 43.502C140.881 43.5749 140.66 43.6113 140.432 43.6113ZM152.34 38.1289V37.1035H145.211V38.1289H148.116V44.5H149.387V38.1289H152.34ZM158.958 44.5H160.277V44.3906C160.195 44.1855 160.131 43.9463 160.086 43.6729C160.04 43.3949 160.017 43.1328 160.017 42.8867V39.4482C160.017 39.0335 159.942 38.6712 159.792 38.3613C159.641 38.0514 159.436 37.7917 159.176 37.582C158.912 37.377 158.6 37.2243 158.24 37.124C157.88 37.0192 157.49 36.9668 157.071 36.9668C156.611 36.9668 156.198 37.0306 155.834 37.1582C155.474 37.2858 155.168 37.4521 154.918 37.6572C154.662 37.8669 154.466 38.1016 154.33 38.3613C154.198 38.6211 154.129 38.8854 154.125 39.1543H155.396C155.396 38.9993 155.433 38.8512 155.505 38.71C155.583 38.5641 155.69 38.4388 155.827 38.334C155.964 38.2292 156.13 38.1449 156.326 38.0811C156.526 38.0173 156.752 37.9854 157.003 37.9854C157.271 37.9854 157.513 38.0195 157.727 38.0879C157.946 38.1562 158.13 38.252 158.281 38.375C158.431 38.5026 158.547 38.6553 158.63 38.833C158.712 39.0107 158.753 39.2113 158.753 39.4346V40.0156H157.372C156.857 40.0156 156.39 40.0658 155.97 40.166C155.556 40.2663 155.2 40.4167 154.904 40.6172C154.608 40.8223 154.378 41.0775 154.214 41.3828C154.054 41.6882 153.974 42.0436 153.974 42.4492C153.974 42.7591 154.033 43.0485 154.152 43.3174C154.275 43.5817 154.448 43.8096 154.672 44.001C154.89 44.1969 155.157 44.3519 155.471 44.4658C155.79 44.5798 156.146 44.6367 156.538 44.6367C156.779 44.6367 157.007 44.6117 157.221 44.5615C157.436 44.5114 157.638 44.443 157.83 44.3564C158.017 44.2699 158.187 44.1696 158.342 44.0557C158.502 43.9417 158.645 43.821 158.773 43.6934C158.787 43.8483 158.807 43.9987 158.835 44.1445C158.866 44.2858 158.908 44.4043 158.958 44.5ZM156.722 43.5361C156.476 43.5361 156.26 43.5042 156.073 43.4404C155.886 43.3766 155.731 43.2878 155.608 43.1738C155.485 43.0645 155.392 42.9323 155.328 42.7773C155.269 42.6224 155.239 42.4538 155.239 42.2715C155.239 42.0801 155.273 41.9092 155.341 41.7588C155.414 41.6084 155.519 41.4785 155.656 41.3691C155.847 41.2142 156.105 41.1003 156.428 41.0273C156.756 40.9499 157.139 40.9111 157.577 40.9111H158.753V42.4082C158.68 42.554 158.579 42.6953 158.452 42.832C158.324 42.9642 158.174 43.0827 158.001 43.1875C157.823 43.2923 157.627 43.3766 157.413 43.4404C157.199 43.5042 156.968 43.5361 156.722 43.5361ZM168.576 37.1035H163.319L163.305 40.2686C163.305 40.4964 163.301 40.7129 163.292 40.918C163.287 41.1185 163.278 41.3076 163.264 41.4854C163.241 41.7087 163.212 41.9137 163.175 42.1006C163.139 42.2829 163.096 42.4447 163.046 42.5859C162.945 42.8457 162.809 43.0417 162.635 43.1738C162.467 43.3014 162.253 43.3652 161.993 43.3652L161.713 43.3721L161.692 44.5H162.061C162.544 44.5 162.948 44.4066 163.271 44.2197C163.595 44.0283 163.852 43.7526 164.044 43.3926C164.162 43.1693 164.26 42.9118 164.338 42.6201C164.415 42.3285 164.472 42.0094 164.508 41.6631C164.531 41.4535 164.547 41.2324 164.556 41C164.57 40.763 164.577 40.5192 164.577 40.2686L164.584 38.1494H167.304V44.5H168.576V37.1035ZM172.117 39.9062V37.1035H170.852V44.5H174.38C174.822 44.5 175.216 44.4408 175.562 44.3223C175.908 44.2038 176.2 44.0397 176.437 43.8301C176.674 43.625 176.854 43.3812 176.977 43.0986C177.1 42.8115 177.162 42.5039 177.162 42.1758C177.162 41.8431 177.098 41.5378 176.97 41.2598C176.847 40.9818 176.667 40.7425 176.43 40.542C176.193 40.3415 175.902 40.1865 175.555 40.0771C175.214 39.9632 174.822 39.9062 174.38 39.9062H172.117ZM172.117 40.9385H174.38C174.644 40.9385 174.869 40.9772 175.056 41.0547C175.248 41.1276 175.405 41.2233 175.528 41.3418C175.651 41.4648 175.742 41.6038 175.801 41.7588C175.861 41.9092 175.89 42.0641 175.89 42.2236C175.89 42.3877 175.861 42.5449 175.801 42.6953C175.747 42.8457 175.658 42.9779 175.535 43.0918C175.412 43.2057 175.255 43.2969 175.063 43.3652C174.872 43.4336 174.644 43.4678 174.38 43.4678H172.117V40.9385ZM180.204 37.1035H178.939V44.5H184.921V46.6943H186.048L186.172 43.4609H185.577V37.1035H184.312V43.4609L182.89 43.4678V37.1035H181.626V43.4678H180.204V37.1035ZM192.543 37.1035L188.926 42.5654V37.1035H187.669V44.5H188.926L192.543 39.0449V44.5H193.807V37.1035H192.543ZM196.111 37.1035V44.5H201.675V46.6943H202.81L202.933 43.4678H202.051V37.1035H200.78V43.4678H197.376V37.1035H196.111ZM209.407 44.5H210.726V44.3906C210.644 44.1855 210.58 43.9463 210.535 43.6729C210.489 43.3949 210.466 43.1328 210.466 42.8867V39.4482C210.466 39.0335 210.391 38.6712 210.241 38.3613C210.09 38.0514 209.885 37.7917 209.626 37.582C209.361 37.377 209.049 37.2243 208.689 37.124C208.329 37.0192 207.939 36.9668 207.52 36.9668C207.06 36.9668 206.647 37.0306 206.283 37.1582C205.923 37.2858 205.617 37.4521 205.367 37.6572C205.112 37.8669 204.916 38.1016 204.779 38.3613C204.647 38.6211 204.578 38.8854 204.574 39.1543H205.845C205.845 38.9993 205.882 38.8512 205.955 38.71C206.032 38.5641 206.139 38.4388 206.276 38.334C206.413 38.2292 206.579 38.1449 206.775 38.0811C206.976 38.0173 207.201 37.9854 207.452 37.9854C207.721 37.9854 207.962 38.0195 208.176 38.0879C208.395 38.1562 208.58 38.252 208.73 38.375C208.88 38.5026 208.997 38.6553 209.079 38.833C209.161 39.0107 209.202 39.2113 209.202 39.4346V40.0156H207.821C207.306 40.0156 206.839 40.0658 206.42 40.166C206.005 40.2663 205.649 40.4167 205.353 40.6172C205.057 40.8223 204.827 41.0775 204.663 41.3828C204.503 41.6882 204.423 42.0436 204.423 42.4492C204.423 42.7591 204.483 43.0485 204.601 43.3174C204.724 43.5817 204.897 43.8096 205.121 44.001C205.339 44.1969 205.606 44.3519 205.921 44.4658C206.24 44.5798 206.595 44.6367 206.987 44.6367C207.228 44.6367 207.456 44.6117 207.671 44.5615C207.885 44.5114 208.088 44.443 208.279 44.3564C208.466 44.2699 208.637 44.1696 208.792 44.0557C208.951 43.9417 209.095 43.821 209.222 43.6934C209.236 43.8483 209.256 43.9987 209.284 44.1445C209.316 44.2858 209.357 44.4043 209.407 44.5ZM207.172 43.5361C206.925 43.5361 206.709 43.5042 206.522 43.4404C206.335 43.3766 206.18 43.2878 206.057 43.1738C205.934 43.0645 205.841 42.9323 205.777 42.7773C205.718 42.6224 205.688 42.4538 205.688 42.2715C205.688 42.0801 205.722 41.9092 205.791 41.7588C205.864 41.6084 205.968 41.4785 206.105 41.3691C206.297 41.2142 206.554 41.1003 206.878 41.0273C207.206 40.9499 207.589 40.9111 208.026 40.9111H209.202V42.4082C209.129 42.554 209.029 42.6953 208.901 42.832C208.773 42.9642 208.623 43.0827 208.45 43.1875C208.272 43.2923 208.076 43.3766 207.862 43.4404C207.648 43.5042 207.418 43.5361 207.172 43.5361Z" fill="#6b6b6b"/>
</svg>
