<svg aria-hidden="true" width="22" height="28" fill="none" xmlns="http://www.w3.org/2000/svg"><path class="socials__item-link__image" d="M15.764 21.028c-.006.345-.013.69-.013 1.034 0 1.817-.007 3.633.007 5.45 0 .28-.048.395-.348.387a458.198 458.198 0 00-6.291 0c-.266 0-.355-.079-.348-.366.014-1.005.007-2.01 0-3.008 0-.093.11-.273-.116-.28-.047 0-.088.007-.136.007-.088-.043-.17-.036-.224.065-.845.093-1.696.165-2.534-.058-1.484-.395-2.546-1.32-3.2-2.793a12.28 12.28 0 00-1.627-2.67c-.205-.26-.532-.36-.75-.618-.081-.1-.217-.18-.177-.316.041-.165.212-.158.348-.172 1.362-.122 2.329.56 3.003 1.737.62 1.077 1.43 1.874 2.6 2.197.832.23 1.662.18 2.48-.086.19-.064.292-.15.313-.395.061-.89.238-1.752.824-2.506-.225-.043-.402-.086-.586-.114-1.443-.23-2.785-.754-3.95-1.695-1.3-1.048-2.11-2.448-2.362-4.164-.218-1.5-.136-3.009.047-4.51C2.867 7 3.174 5.9 3.964 5.04c.279-.302.3-.546.177-.926-.416-1.278-.3-2.564.075-3.842.068-.237.17-.308.415-.244.92.237 1.628.804 2.268 1.494.313.33.578.703.837 1.077.075.107.13.165.259.057.49-.41 1.083-.538 1.675-.632a17.23 17.23 0 015.155-.007c.572.086 1.15.194 1.627.574.225.18.313.08.436-.107A7.073 7.073 0 0118.556.68 3.826 3.826 0 0119.94.02c.218-.057.306.007.374.215.463 1.379.531 2.757.014 4.136-.061.172-.102.294.047.445.838.833 1.233 1.896 1.396 3.066.198 1.422.314 2.85.157 4.293-.259 2.427-1.43 4.194-3.46 5.35-.074-.008-.135.014-.163.093a3.083 3.083 0 01-.156.079.667.667 0 00-.45.208c-.054.022-.115.036-.17.057-.081-.021-.136.015-.17.087-.034.007-.075.021-.109.028-.272.043-.545.08-.776.252l-.11.021c-.197-.007-.394.007-.564.137l-.443.064c-.116.008-.245-.007-.347.036-.11.05-.062.122.034.151l.007.007c.006.1.054.172.143.201.054.115.109.23.163.338.014.15.04.294.163.395.014.064.028.122.041.186.034.201.034.402.143.582l.02.122c-.04.086-.02.165.041.237a1.37 1.37 0 000 .222z" fill="#e20076"/></svg>