<svg width="13" height="13" viewBox="0 0 14 14" xmlns="http://www.w3.org/2000/svg"><path d="M6.067 0a.466.466 0 00-.443.319L5.15 1.74a5.57 5.57 0 00-.561.233l-1.34-.67a.467.467 0 00-.539.087L1.39 2.71a.467.467 0 00-.087.538l.669 1.338a5.59 5.59 0 00-.233.564l-1.42.474A.467.467 0 000 6.067v1.866c0 .2.128.379.319.442l1.424.475c.067.19.144.376.232.558l-.672 1.343a.467.467 0 00.088.538l1.319 1.32a.467.467 0 00.538.088l1.34-.67c.184.087.37.164.561.23l.475 1.424c.064.19.242.32.443.319h1.866c.201 0 .38-.128.443-.319l.475-1.426c.19-.067.375-.144.556-.23l1.345.672c.18.09.396.055.538-.087l1.32-1.32a.467.467 0 00.087-.54l-.67-1.339a5.59 5.59 0 00.233-.562l1.421-.474A.467.467 0 0014 7.933V6.067a.466.466 0 00-.319-.443L12.26 5.15a5.609 5.609 0 00-.233-.56l.671-1.342a.467.467 0 00-.087-.538l-1.32-1.32a.467.467 0 00-.538-.087l-1.337.668a5.595 5.595 0 00-.566-.233L8.376.318A.467.467 0 007.933 0H6.067zm.931 3.731A3.277 3.277 0 0110.267 7a3.274 3.274 0 01-3.269 3.264A3.271 3.271 0 013.733 7a3.274 3.274 0 013.265-3.27z" fill="#31a9f5"/></svg>