<svg width="40" height="40" xmlns="http://www.w3.org/2000/svg"><path fill="#D9D9D9" d="M0 0h40v40H0z"/><path d="M20.458 24.917a4.84 4.84 0 004.834-4.834v-7.25A4.838 4.838 0 0020.458 8a4.838 4.838 0 00-4.833 4.833v7.25a4.839 4.839 0 004.833 4.834z" fill="#242424"/><path d="M28.917 20.083v-2.416a1.208 1.208 0 10-2.417 0v2.416a6.049 6.049 0 01-6.042 6.042 6.049 6.049 0 01-6.041-6.042v-2.416a1.208 1.208 0 10-2.417 0v2.416c0 4.254 3.157 7.772 7.25 8.362v1.305h-3.625a1.207 1.207 0 100 2.417h9.667a1.207 1.207 0 100-2.417h-3.625v-1.305c4.092-.59 7.25-4.108 7.25-8.362z" fill="#242424"/></svg>