<svg width="40" height="40" fill="none" xmlns="http://www.w3.org/2000/svg"><path d="M35.315 22.098a1.912 1.912 0 01-1.393-.615A2.169 2.169 0 0133.345 20v-8.951c0-.557.208-1.09.577-1.484.37-.393.87-.614 1.393-.614s1.024.22 1.394.614c.37.394.577.927.577 1.484v8.95c0 .557-.208 1.09-.577 1.484-.37.393-.871.615-1.394.615z" fill="url(#paint0_linear)"/><path d="M35.313 13.147c-.334 0-.662-.09-.953-.263L19.188 3.933a2.008 2.008 0 01-.587-.529 2.149 2.149 0 01-.352-.728 2.229 2.229 0 01.17-1.595 2.07 2.07 0 01.497-.625 1.93 1.93 0 01.683-.375 1.855 1.855 0 011.499.182l15.172 8.95c.382.226.682.58.855 1.008.172.428.206.904.097 1.354-.11.45-.357.85-.702 1.134-.346.284-.77.439-1.207.438z" fill="url(#paint1_linear)"/><path d="M4.972 13.147a1.9 1.9 0 01-1.207-.438 2.112 2.112 0 01-.702-1.134c-.11-.45-.075-.926.097-1.354.173-.427.473-.782.856-1.007L19.187.263A1.856 1.856 0 0120.685.08c.25.076.482.204.684.375.203.172.371.384.497.625a2.227 2.227 0 01.17 1.595 2.149 2.149 0 01-.352.728 2 2 0 01-.587.529l-15.172 8.95c-.291.174-.62.264-.953.264z" fill="url(#paint2_linear)"/><path d="M20.14 22.098c-.333 0-.661-.09-.953-.263L4.015 12.884a2.008 2.008 0 01-.586-.529 2.15 2.15 0 01-.353-.728 2.228 2.228 0 01.17-1.595 2.07 2.07 0 01.498-.625 1.93 1.93 0 01.683-.375 1.856 1.856 0 011.498.182l15.172 8.95c.382.226.683.58.855 1.008.173.427.207.904.097 1.354-.11.45-.356.849-.702 1.134-.345.284-.77.438-1.207.438z" fill="url(#paint3_linear)"/><path d="M20.143 40a1.912 1.912 0 01-1.393-.614 2.169 2.169 0 01-.578-1.484V20c0-.556.208-1.09.578-1.483.369-.394.87-.615 1.393-.615.522 0 1.023.221 1.393.615.37.393.577.927.577 1.483v17.902c0 .556-.207 1.09-.577 1.483a1.91 1.91 0 01-1.393.615z" fill="url(#paint4_linear)"/><path d="M20.144 40a1.9 1.9 0 01-1.207-.438 2.112 2.112 0 01-.702-1.134c-.11-.45-.075-.927.097-1.354.172-.427.473-.782.855-1.007l15.172-8.951c.457-.27.996-.335 1.498-.182.503.154.927.513 1.18 1a2.21 2.21 0 01.17 1.595 2.08 2.08 0 01-.938 1.257l-15.172 8.95a1.87 1.87 0 01-.953.264z" fill="url(#paint5_linear)"/><path d="M20.14 40a1.87 1.87 0 01-.953-.263L4.015 30.786a2.007 2.007 0 01-.586-.53 2.15 2.15 0 01-.353-.727 2.228 2.228 0 01.17-1.595 2.07 2.07 0 01.498-.625 1.93 1.93 0 01.683-.375 1.854 1.854 0 011.498.182l15.172 8.95c.382.226.683.58.855 1.008.173.427.207.904.097 1.354-.11.45-.356.849-.702 1.134-.345.284-.77.438-1.207.438z" fill="url(#paint6_linear)"/><path d="M4.97 31.049a1.912 1.912 0 01-1.393-.614A2.169 2.169 0 013 28.95V20c0-.556.208-1.09.577-1.483.37-.394.87-.615 1.393-.615s1.024.221 1.394.615c.37.393.577.927.577 1.483v8.951a2.17 2.17 0 01-.577 1.483c-.37.394-.871.615-1.394.615z" fill="url(#paint7_linear)"/><defs><linearGradient id="paint0_linear" x1="35.315" y1="20" x2="35.315" y2="11.049" gradientUnits="userSpaceOnUse"><stop stop-color="#C6F523"/><stop offset=".9" stop-color="#AFE63A"/></linearGradient><linearGradient id="paint1_linear" x1="35.315" y1="11.049" x2="19.711" y2="2.928" gradientUnits="userSpaceOnUse"><stop stop-color="#AFE63A"/><stop offset=".9" stop-color="#81C36D"/></linearGradient><linearGradient id="paint2_linear" x1="20.142" y1="2.098" x2="4.538" y2="10.219" gradientUnits="userSpaceOnUse"><stop stop-color="#81C36D"/><stop offset=".8" stop-color="#61AFB4"/></linearGradient><linearGradient id="paint3_linear" x1="4.97" y1="11.049" x2="20.574" y2="19.169" gradientUnits="userSpaceOnUse"><stop stop-color="#61AFB4"/><stop offset=".9" stop-color="#42A0DA"/></linearGradient><linearGradient id="paint4_linear" x1="20.143" y1="20" x2="20.143" y2="37.902" gradientUnits="userSpaceOnUse"><stop stop-color="#42A0DA"/><stop offset=".8" stop-color="#3B84BB"/></linearGradient><linearGradient id="paint5_linear" x1="35.314" y1="28.951" x2="19.71" y2="37.071" gradientUnits="userSpaceOnUse"><stop stop-color="#386D9B"/><stop offset=".7" stop-color="#3B84BB"/></linearGradient><linearGradient id="paint6_linear" x1="20.142" y1="37.902" x2="4.538" y2="29.781" gradientUnits="userSpaceOnUse"><stop offset=".3" stop-color="#3B84BB"/><stop offset=".9" stop-color="#366FA5"/></linearGradient><linearGradient id="paint7_linear" x1="4.97" y1="28.951" x2="4.97" y2="20" gradientUnits="userSpaceOnUse"><stop stop-color="#366FA5"/><stop offset="1" stop-color="#366998"/></linearGradient></defs></svg>