<svg width="13" height="13" viewBox="0 0 15 15" fill="none" xmlns="http://www.w3.org/2000/svg">
	<path d="M7.22192 6.36223L1.92498 1.06568C1.81251 0.953035 1.74382 0.796775 1.74382 0.6249C1.74382 0.281357 2.02204 2.3025e-07 2.36885 2.3025e-07C2.45949 2.3025e-07 2.54369 0.018917 2.62183 0.0531063C2.62183 0.0531063 11.447 3.87811 11.547 3.92516C11.753 4.01848 11.9126 4.19981 11.9751 4.42496L13.4034 9.57176L13.6908 9.28737C13.9906 8.98737 14.4751 8.98737 14.7748 9.28737C15.0751 9.58734 15.0751 10.072 14.7748 10.3717L10.3718 14.775C10.0721 15.075 9.58741 15.075 9.28779 14.775C8.98748 14.4751 8.98748 13.9904 9.28779 13.6907L9.5719 13.4064L4.41563 11.972C4.19058 11.9061 4.00938 11.7437 3.91555 11.5313L0.0499424 2.61221C0.01878 2.53744 0 2.45595 0 2.36869C0 2.02174 0.281252 1.74365 0.625035 1.74365C0.803239 1.74365 0.962524 1.81568 1.07503 1.93407L6.36245 7.22157C6.29063 7.40624 6.25001 7.60312 6.25001 7.81242C6.25001 8.67486 6.9501 9.37494 7.81257 9.37494C8.67493 9.37494 9.37502 8.67486 9.37502 7.81242C9.37502 6.94998 8.67493 6.24986 7.81257 6.24986C7.60323 6.24986 7.40635 6.29048 7.22192 6.36223Z" fill="#e20076"/>
</svg>
